HIERARCHY
ROOT mixamorig:Hips
{
	OFFSET 0.000000 82.849998 0.000000
	CHANNELS 6 Xposition Yposition Zposition Zrotation Xrotation Yrotation
	JOINT mixamorig:RightUpLeg
	{
		OFFSET -11.015000 0.000000 0.000000
		CHANNELS 6 Xposition Yposition Zposition Zrotation Xrotation Yrotation
		JOINT mixamorig:RightLeg
		{
			OFFSET 0.000006 38.939995 0.000000
			CHANNELS 6 Xposition Yposition Zposition Zrotation Xrotation Yrotation
			JOINT mixamorig:RightFoot
			{
				OFFSET 0.000006 36.949997 0.000000
				CHANNELS 6 Xposition Yposition Zposition Zrotation Xrotation Yrotation
				JOINT mixamorig:RightToeBase
				{
					OFFSET 0.000002 14.453186 0.000002
					CHANNELS 3 Zrotation Xrotation Yrotation
					End Site
					{
						OFFSET 0.000000 5.428715 0.000000
					}
				}
			}
		}
	}
	JOINT mixamorig:LeftUpLeg
	{
		OFFSET 11.015000 0.000000 0.000000
		CHANNELS 6 Xposition Yposition Zposition Zrotation Xrotation Yrotation
		JOINT mixamorig:LeftLeg
		{
			OFFSET 0.000006 38.939995 0.000000
			CHANNELS 6 Xposition Yposition Zposition Zrotation Xrotation Yrotation
			JOINT mixamorig:LeftFoot
			{
				OFFSET 0.000006 36.949997 0.000000
				CHANNELS 6 Xposition Yposition Zposition Zrotation Xrotation Yrotation
				JOINT mixamorig:LeftToeBase
				{
					OFFSET 0.000002 14.453186 0.000002
					CHANNELS 3 Zrotation Xrotation Yrotation
					End Site
					{
						OFFSET 0.000000 5.428715 0.000000
					}
				}
			}
		}
	}
	JOINT mixamorig:Spine
	{
		OFFSET 0.000000 7.485405 -0.654888
		CHANNELS 6 Xposition Yposition Zposition Zrotation Xrotation Yrotation
		JOINT mixamorig:Spine1
		{
			OFFSET 0.000000 16.638000 0.000000
			CHANNELS 6 Xposition Yposition Zposition Zrotation Xrotation Yrotation
			JOINT mixamorig:Spine2
			{
				OFFSET 0.000000 11.806999 0.000000
				CHANNELS 6 Xposition Yposition Zposition Zrotation Xrotation Yrotation
				JOINT mixamorig:Neck
				{
					OFFSET 0.000000 17.711006 0.000000
					CHANNELS 6 Xposition Yposition Zposition Zrotation Xrotation Yrotation
					JOINT mixamorig:Head
					{
						OFFSET 0.000000 8.074463 -2.623555
						CHANNELS 6 Xposition Yposition Zposition Zrotation Xrotation Yrotation
						End Site
						{
							OFFSET 0.000000 19.021133 -6.180341
						}
					}
				}
				JOINT mixamorig:RightShoulder
				{
					OFFSET -6.074482 12.344002 0.000000
					CHANNELS 6 Xposition Yposition Zposition Zrotation Xrotation Yrotation
					JOINT mixamorig:RightArm
					{
						OFFSET -0.000001 10.130514 0.000001
						CHANNELS 6 Xposition Yposition Zposition Zrotation Xrotation Yrotation
						JOINT mixamorig:RightForeArm
						{
							OFFSET -0.000002 21.779999 0.000002
							CHANNELS 6 Xposition Yposition Zposition Zrotation Xrotation Yrotation
							JOINT mixamorig:RightHand
							{
								OFFSET -0.000002 23.800003 0.000002
								CHANNELS 6 Xposition Yposition Zposition Zrotation Xrotation Yrotation
								JOINT mixamorig:RightHandThumb1
								{
									OFFSET 2.388923 1.769394 0.453000
									CHANNELS 6 Xposition Yposition Zposition Zrotation Xrotation Yrotation
									JOINT mixamorig:RightHandThumb2
									{
										OFFSET 0.066587 3.622391 0.000000
										CHANNELS 6 Xposition Yposition Zposition Zrotation Xrotation Yrotation
										JOINT mixamorig:RightHandThumb3
										{
											OFFSET 0.046278 2.517578 0.000000
											CHANNELS 6 Xposition Yposition Zposition Zrotation Xrotation Yrotation
											End Site
											{
												OFFSET 0.043650 2.374603 0.000000
											}
										}
									}
								}
								JOINT mixamorig:RightHandIndex1
								{
									OFFSET 3.082142 8.249741 -0.410000
									CHANNELS 6 Xposition Yposition Zposition Zrotation Xrotation Yrotation
									JOINT mixamorig:RightHandIndex2
									{
										OFFSET 0.065466 3.561401 0.000000
										CHANNELS 6 Xposition Yposition Zposition Zrotation Xrotation Yrotation
										JOINT mixamorig:RightHandIndex3
										{
											OFFSET 0.037107 2.018661 0.000000
											CHANNELS 6 Xposition Yposition Zposition Zrotation Xrotation Yrotation
											End Site
											{
												OFFSET 0.032641 1.775696 0.000000
											}
										}
									}
								}
								JOINT mixamorig:RightHandMiddle1
								{
									OFFSET 1.208574 8.399216 -0.426999
									CHANNELS 6 Xposition Yposition Zposition Zrotation Xrotation Yrotation
									JOINT mixamorig:RightHandMiddle2
									{
										OFFSET 0.071421 3.885345 0.000000
										CHANNELS 6 Xposition Yposition Zposition Zrotation Xrotation Yrotation
										JOINT mixamorig:RightHandMiddle3
										{
											OFFSET 0.044771 2.435593 0.000000
											CHANNELS 6 Xposition Yposition Zposition Zrotation Xrotation Yrotation
											End Site
											{
												OFFSET 0.035710 1.942673 0.000000
											}
										}
									}
								}
								JOINT mixamorig:RightHandRing1
								{
									OFFSET -0.453202 7.882660 -0.506999
									CHANNELS 6 Xposition Yposition Zposition Zrotation Xrotation Yrotation
									JOINT mixamorig:RightHandRing2
									{
										OFFSET 0.062249 3.386429 0.000000
										CHANNELS 6 Xposition Yposition Zposition Zrotation Xrotation Yrotation
										JOINT mixamorig:RightHandRing3
										{
											OFFSET 0.043191 2.349609 0.000000
											CHANNELS 6 Xposition Yposition Zposition Zrotation Xrotation Yrotation
											End Site
											{
												OFFSET 0.033578 1.826691 0.000000
											}
										}
									}
								}
								JOINT mixamorig:RightHandPinky1
								{
									OFFSET -2.123566 7.225250 -0.439999
									CHANNELS 6 Xposition Yposition Zposition Zrotation Xrotation Yrotation
									JOINT mixamorig:RightHandPinky2
									{
										OFFSET 0.049862 2.712540 0.000000
										CHANNELS 6 Xposition Yposition Zposition Zrotation Xrotation Yrotation
										JOINT mixamorig:RightHandPinky3
										{
											OFFSET 0.031502 1.713715 0.000000
											CHANNELS 6 Xposition Yposition Zposition Zrotation Xrotation Yrotation
											End Site
											{
												OFFSET 0.029756 1.618729 0.000000
											}
										}
									}
								}
							}
						}
					}
				}
				JOINT mixamorig:LeftShoulder
				{
					OFFSET 6.074482 12.344002 0.000000
					CHANNELS 6 Xposition Yposition Zposition Zrotation Xrotation Yrotation
					JOINT mixamorig:LeftArm
					{
						OFFSET 0.000001 10.130514 0.000001
						CHANNELS 6 Xposition Yposition Zposition Zrotation Xrotation Yrotation
						JOINT mixamorig:LeftForeArm
						{
							OFFSET 0.000002 21.779999 0.000002
							CHANNELS 6 Xposition Yposition Zposition Zrotation Xrotation Yrotation
							JOINT mixamorig:LeftHand
							{
								OFFSET 0.000002 23.800003 0.000002
								CHANNELS 6 Xposition Yposition Zposition Zrotation Xrotation Yrotation
								JOINT mixamorig:LeftHandThumb1
								{
									OFFSET -2.356000 1.813004 0.453000
									CHANNELS 6 Xposition Yposition Zposition Zrotation Xrotation Yrotation
									JOINT mixamorig:LeftHandThumb2
									{
										OFFSET 0.000000 3.623001 0.000000
										CHANNELS 6 Xposition Yposition Zposition Zrotation Xrotation Yrotation
										JOINT mixamorig:LeftHandThumb3
										{
											OFFSET -0.000000 2.518005 0.000000
											CHANNELS 6 Xposition Yposition Zposition Zrotation Xrotation Yrotation
											End Site
											{
												OFFSET -0.000001 2.375000 0.000000
											}
										}
									}
								}
								JOINT mixamorig:LeftHandIndex1
								{
									OFFSET -2.929999 8.304993 -0.409999
									CHANNELS 6 Xposition Yposition Zposition Zrotation Xrotation Yrotation
									JOINT mixamorig:LeftHandIndex2
									{
										OFFSET 0.000000 3.561996 0.000000
										CHANNELS 6 Xposition Yposition Zposition Zrotation Xrotation Yrotation
										JOINT mixamorig:LeftHandIndex3
										{
											OFFSET 0.000000 2.018997 0.000000
											CHANNELS 6 Xposition Yposition Zposition Zrotation Xrotation Yrotation
											End Site
											{
												OFFSET 0.000000 1.776001 0.000000
											}
										}
									}
								}
								JOINT mixamorig:LeftHandMiddle1
								{
									OFFSET -1.053999 8.419998 -0.426999
									CHANNELS 6 Xposition Yposition Zposition Zrotation Xrotation Yrotation
									JOINT mixamorig:LeftHandMiddle2
									{
										OFFSET 0.000000 3.886002 0.000000
										CHANNELS 6 Xposition Yposition Zposition Zrotation Xrotation Yrotation
										JOINT mixamorig:LeftHandMiddle3
										{
											OFFSET 0.000000 2.436005 0.000000
											CHANNELS 6 Xposition Yposition Zposition Zrotation Xrotation Yrotation
											End Site
											{
												OFFSET 0.000000 1.942993 0.000000
											}
										}
									}
								}
								JOINT mixamorig:LeftHandRing1
								{
									OFFSET 0.598001 7.873001 -0.506999
									CHANNELS 6 Xposition Yposition Zposition Zrotation Xrotation Yrotation
									JOINT mixamorig:LeftHandRing2
									{
										OFFSET 0.000000 3.386993 0.000000
										CHANNELS 6 Xposition Yposition Zposition Zrotation Xrotation Yrotation
										JOINT mixamorig:LeftHandRing3
										{
											OFFSET 0.000000 2.350006 0.000000
											CHANNELS 6 Xposition Yposition Zposition Zrotation Xrotation Yrotation
											End Site
											{
												OFFSET 0.000000 1.826996 0.000000
											}
										}
									}
								}
								JOINT mixamorig:LeftHandPinky1
								{
									OFFSET 2.256001 7.184998 -0.439999
									CHANNELS 6 Xposition Yposition Zposition Zrotation Xrotation Yrotation
									JOINT mixamorig:LeftHandPinky2
									{
										OFFSET 0.000000 2.712997 0.000000
										CHANNELS 6 Xposition Yposition Zposition Zrotation Xrotation Yrotation
										JOINT mixamorig:LeftHandPinky3
										{
											OFFSET 0.000000 1.714005 0.000000
											CHANNELS 6 Xposition Yposition Zposition Zrotation Xrotation Yrotation
											End Site
											{
												OFFSET 0.000000 1.619003 0.000000
											}
										}
									}
								}
							}
						}
					}
				}
			}
		}
	}
}
MOTION
Frames: 4
Frame Time: 0.033333
-65.039291 82.628014 43.330482 178.103165 170.876404 7.693623 -11.642136 0.000099 -0.362553 3.032508 -168.510086 -168.287811 0.110748 38.946510 -0.038486 179.937698 -173.029373 -166.491394 0.630692 37.010506 -0.051285 25.512184 67.815025 -28.978603 -0.000000 28.787001 0.000000 11.622108 0.002754 0.371449 176.803284 -12.533567 14.728000 -0.107464 38.921463 0.031666 0.632481 -2.789855 -5.645712 -0.576210 36.846893 0.223244 1.662417 64.978691 -0.748201 -0.000000 28.787001 0.000000 0.002930 7.484161 -0.655540 179.895462 178.080765 179.498611 0.004311 16.636421 -0.001068 179.824615 173.213852 179.515854 0.005074 11.805405 -0.000687 179.623672 175.084061 177.699951 0.001358 17.711136 0.000584 179.521072 153.956207 -179.929565 -0.002235 8.074173 -2.625328 1.734937 16.139643 -8.100818 -6.070307 12.341949 -0.000042 95.293198 11.268587 -86.753441 -0.002609 10.134634 0.001259 111.714920 130.007233 -130.211227 -0.004997 21.772369 0.014484 147.029327 155.298477 147.771423 -0.008446 23.798660 0.000511 165.476791 -146.644135 147.857117 2.389336 1.769012 0.453159 128.207001 149.825943 -114.419075 0.066597 3.622833 0.000000 20.439043 -0.002307 0.000707 0.046272 2.517319 0.000000 13.612458 -0.001383 0.000814 3.082268 8.250214 -0.410561 178.015533 161.658401 179.649139 0.065460 3.561218 0.000000 0.038911 15.010545 -0.282566 0.037109 2.018936 0.000000 0.019068 10.507406 -0.195136 1.208611 8.398880 -0.426876 8.260871 34.851234 -0.733372 0.071426 3.885620 0.000000 0.231133 34.850887 -0.731840 0.044777 2.435760 0.000000 0.092654 23.210985 -0.450144 -0.453377 7.881912 -0.507538 9.659910 43.034904 -0.981599 0.062248 3.386337 0.000000 0.387248 43.033428 -0.970560 0.043190 2.349686 0.000000 0.142410 28.661003 -0.566226 -2.123383 7.225510 -0.440468 9.415246 28.056068 -0.559598 0.049858 2.712143 0.000000 0.373635 42.080860 -0.934716 0.031502 1.713547 0.000000 0.136468 28.026566 -0.544472 6.073672 12.344437 0.000462 84.193817 177.428055 -90.397285 0.001244 10.131308 -0.000366 36.661720 80.088722 -32.765476 0.002544 21.780060 0.001129 2.899101 2.182002 6.641748 -0.000317 23.800446 0.004253 5.534977 -11.442677 9.195458 -2.356422 1.812637 0.453159 25.354105 7.763363 -48.303581 0.000000 3.623444 0.000000 163.553833 -179.999985 -179.999985 0.000000 2.517746 0.000000 169.046860 -179.999985 -179.999985 -2.930115 8.305481 -0.410561 172.423279 149.379044 179.999985 0.000000 3.561829 0.000000 0.000008 25.053507 -0.000012 0.000000 2.019272 0.000000 0.000012 17.537434 -0.000012 -1.054043 8.419662 -0.426876 171.992935 145.035385 179.999985 0.000000 3.886276 0.000000 0.000004 34.964645 -0.000023 0.000000 2.436172 0.000000 0.000010 23.286457 -0.000012 0.598167 7.872253 -0.507538 169.531845 146.010895 179.999985 0.000000 3.386902 0.000000 0.000007 33.989113 -0.000024 0.000000 2.350082 0.000000 0.000009 22.636747 -0.000009 2.255821 7.185272 -0.440468 158.690292 142.619415 179.999985 0.000000 2.712601 0.000000 0.000028 56.070927 -0.000038 0.000000 1.713837 0.000000 0.000010 37.343212 -0.000018
-65.046219 82.625648 43.330185 178.119675 170.898895 7.650481 -11.639832 0.001381 -0.361652 3.042153 -168.526184 -168.338776 0.110207 38.946167 -0.038273 179.917999 -173.058914 -166.476166 0.630531 37.008743 -0.052822 25.509262 67.787407 -28.973902 -0.000000 28.787001 0.000000 11.620667 0.004311 0.368301 176.803680 -12.513690 14.733401 -0.106064 38.921402 0.031792 0.639361 -2.784929 -5.662806 -0.571945 36.846741 0.220455 1.727335 64.987343 -0.817907 -0.000000 28.787001 0.000000 0.002991 7.483292 -0.655159 179.896576 178.084076 179.505722 0.003357 16.635551 -0.000019 179.826477 173.217087 179.522751 0.002388 11.804718 0.001328 179.628250 175.086197 177.732651 0.001114 17.711029 0.001797 179.574860 153.981308 -179.937637 0.000542 8.074677 -2.623276 1.845053 16.085688 -8.180841 -6.074313 12.340973 0.000690 95.263924 11.313635 -86.730392 -0.000259 10.125784 0.002071 111.016464 130.005417 -129.797409 0.011017 21.757797 0.037609 148.659668 156.442856 147.176880 0.020248 23.801376 0.016769 164.455704 -147.007278 146.639450 2.389336 1.769012 0.453159 127.659897 149.834290 -115.388641 0.066597 3.622833 0.000000 19.358116 -0.001161 -0.000763 0.046272 2.517319 0.000000 12.892491 -0.000876 -0.000319 3.082268 8.250214 -0.410561 176.490860 161.492661 179.649384 0.065460 3.561218 0.000000 0.038461 15.139019 -0.280200 0.037109 2.018936 0.000000 0.018053 10.597333 -0.193579 1.208611 8.398880 -0.426876 8.338681 34.405197 -0.719926 0.071426 3.885620 0.000000 0.221741 34.405415 -0.721438 0.044777 2.435760 0.000000 0.089651 22.914339 -0.445947 -0.453377 7.881912 -0.507538 9.820657 41.485706 -0.931617 0.062248 3.386337 0.000000 0.352980 41.485729 -0.931212 0.043190 2.349686 0.000000 0.135585 27.630117 -0.551084 -2.123383 7.225510 -0.440468 9.584846 26.073307 -0.514645 0.049858 2.712143 0.000000 0.301609 39.109020 -0.856385 0.031502 1.713547 0.000000 0.118379 26.047144 -0.516079 6.074198 12.344696 0.002331 84.210075 177.427612 -90.373337 -0.001194 10.131659 -0.000450 36.821236 80.087837 -32.805954 0.000805 21.780060 0.000092 2.871482 2.164061 6.520974 0.000118 23.800247 0.001701 5.540545 -11.429894 9.211888 -2.356419 1.812637 0.453159 25.292265 7.669495 -48.293728 0.000000 3.623444 0.000000 163.563828 -179.999985 180.000000 0.000000 2.517746 0.000000 169.053543 179.999985 -179.999985 -2.930119 8.305481 -0.410561 172.419662 149.394165 179.999985 0.000000 3.561813 0.000000 179.999985 154.958710 -179.999985 0.000000 2.019272 0.000000 0.000001 17.528831 0.000014 -1.054043 8.419662 -0.426876 171.985550 145.072235 -179.999985 0.000000 3.886276 0.000000 0.000007 34.927746 0.000001 0.000000 2.436172 0.000000 0.000006 23.261822 0.000006 0.598167 7.872253 -0.507538 169.529510 146.028732 -179.999985 0.000000 3.386902 0.000000 179.999985 146.028641 179.999985 0.000000 2.350082 0.000000 180.000000 157.375092 -179.999985 2.255821 7.185272 -0.440468 158.678101 142.643967 -180.000000 0.000000 2.712601 0.000000 0.000014 56.034344 -0.000019 0.000000 1.713837 0.000000 -0.000000 37.318710 0.000000
-65.052185 82.623138 43.327377 178.133224 170.908630 7.610906 -11.637100 0.003693 -0.361938 3.046524 -168.532440 -168.368500 0.109299 38.945839 -0.040310 179.900146 -173.081314 -166.481018 0.627884 37.008110 -0.055019 25.511875 67.763802 -28.967932 -0.000000 28.787001 0.000000 11.619728 0.005684 0.364719 176.807617 -12.510528 14.737350 -0.106880 38.921211 0.031097 0.630884 -2.771607 -5.707699 -0.572098 36.845444 0.218391 1.734295 64.989403 -0.813782 -0.000000 28.787001 0.000000 0.003723 7.482582 -0.654854 179.904083 178.079193 179.518982 0.003471 16.635040 0.000607 179.839096 173.212280 179.534821 0.002426 11.804016 0.001511 179.648605 175.082153 177.791824 0.002724 17.710991 0.001442 179.619553 154.016602 -179.944427 0.002304 8.075058 -2.621670 1.955366 16.008965 -8.308486 -6.076251 12.340630 -0.002243 95.240417 11.304502 -86.741798 -0.002281 10.137381 -0.000767 110.349625 129.951065 -129.291199 0.004944 21.766953 0.013378 149.745361 157.217545 146.548401 0.018929 23.818756 0.039135 162.777237 -146.439728 145.718002 2.389336 1.769012 0.453159 127.799477 149.889755 -114.354065 0.066597 3.622833 0.000000 20.218790 0.000534 -0.000146 0.046272 2.517319 0.000000 13.465661 0.000322 -0.000174 3.082268 8.250214 -0.410561 177.325531 161.474091 179.655838 0.065460 3.561218 0.000000 0.037046 15.156622 -0.278580 0.037109 2.018936 0.000000 0.016928 10.609663 -0.192649 1.208611 8.398880 -0.426876 8.255470 34.866497 -0.733969 0.071426 3.885620 0.000000 0.230365 34.866562 -0.734139 0.044777 2.435760 0.000000 0.092911 23.221512 -0.452143 -0.453377 7.881912 -0.507538 9.701173 42.561096 -0.961059 0.062248 3.386337 0.000000 0.371721 42.560612 -0.958892 0.043190 2.349686 0.000000 0.139332 28.346018 -0.564427 -2.123383 7.225510 -0.440468 9.451200 26.830437 -0.531855 0.049858 2.712143 0.000000 0.326221 40.243942 -0.890338 0.031502 1.713547 0.000000 0.126265 26.803013 -0.531428 6.075263 12.344231 0.002663 84.211838 177.386444 -90.349487 -0.001694 10.131857 -0.000263 36.977924 80.092293 -33.043678 -0.001976 21.780060 -0.001114 2.876509 2.187961 6.692801 0.002480 23.800110 -0.001945 5.579596 -11.427547 9.289865 -2.356419 1.812637 0.453159 25.323307 7.679703 -48.240074 0.000000 3.623444 0.000000 163.584076 179.999969 -179.999985 0.000000 2.517746 0.000000 169.067001 -179.999985 179.999985 -2.930119 8.305481 -0.410561 172.416870 149.405518 179.999985 0.000000 3.561829 0.000000 0.000009 25.031878 0.000009 0.000000 2.019272 0.000000 180.000000 162.477737 -179.999985 -1.054043 8.419662 -0.426876 171.979156 145.104706 179.999924 0.000000 3.886276 0.000000 0.000097 34.895264 -0.000013 0.000000 2.436172 0.000000 0.000009 23.240271 0.000040 0.598167 7.872253 -0.507538 169.525269 146.060822 179.999969 0.000000 3.386902 0.000000 0.000005 33.939224 0.000005 0.000000 2.350082 0.000000 0.000009 22.603500 0.000005 2.255821 7.185272 -0.440468 158.670547 142.659012 179.999985 0.000000 2.712601 0.000000 0.000005 56.011497 0.000013 0.000000 1.713837 0.000000 0.000022 37.303646 -0.000000
-65.058899 82.622726 43.323822 178.139008 170.915176 7.586133 -11.636620 0.005302 -0.365059 3.048969 -168.540131 -168.370239 0.110909 38.945610 -0.040485 179.883820 -173.089432 -166.514160 0.627945 37.007248 -0.056026 25.488262 67.752495 -28.934570 -0.000000 28.787001 0.000000 11.618656 0.005196 0.365536 176.805008 -12.516362 14.713606 -0.106037 38.921257 0.029785 0.635358 -2.754030 -5.710752 -0.570099 36.846390 0.216663 1.732470 64.991920 -0.810572 -0.000000 28.787001 0.000000 0.004875 7.482292 -0.654484 179.912872 178.078842 179.514908 0.004478 16.634758 0.001637 179.853806 173.211945 179.529266 0.003853 11.804001 0.002644 179.666794 175.081421 177.769409 0.003700 17.710953 0.002308 179.640060 154.048599 -179.947632 0.001007 8.074631 -2.624115 2.001281 15.942170 -8.352068 -6.075457 12.341248 -0.000774 95.254982 11.332514 -86.819527 0.000648 10.134573 -0.001995 110.123329 129.942947 -129.071716 0.001617 21.779709 -0.003071 149.804901 157.378296 146.458710 0.015594 23.796951 0.003132 162.775864 -146.604294 145.286392 2.389336 1.769012 0.453159 127.566513 150.941513 -113.651009 0.066597 3.622833 0.000000 20.162020 -0.000158 -0.001141 0.046272 2.517319 0.000000 13.427855 -0.000275 -0.000717 3.082268 8.250214 -0.410561 178.303467 163.092148 179.677414 0.065460 3.561218 0.000000 0.031816 13.833746 -0.260139 0.037109 2.018936 0.000000 0.015550 9.683634 -0.180213 1.208611 8.398880 -0.426876 8.201230 35.161457 -0.741482 0.071426 3.885620 0.000000 0.234786 35.161457 -0.741587 0.044777 2.435760 0.000000 0.094349 23.417875 -0.456044 -0.453377 7.881912 -0.507538 9.820769 41.437908 -0.920936 0.062248 3.386337 0.000000 0.344149 41.437798 -0.922890 0.043190 2.349686 0.000000 0.130752 27.598167 -0.549049 -2.123383 7.225510 -0.440468 9.600574 26.886507 -0.531296 0.049858 2.712143 0.000000 0.325534 40.328697 -0.890896 0.031502 1.713547 0.000000 0.125442 26.859411 -0.532315 6.075888 12.344147 -0.003304 84.201576 177.386703 -90.328484 0.001926 10.130651 -0.000393 36.871475 80.096191 -32.969627 -0.001152 21.779999 -0.000465 2.941033 2.246513 6.749627 0.004372 23.800171 -0.002529 5.630591 -11.471953 9.301443 -2.356422 1.812637 0.453159 25.269884 7.634708 -48.233654 0.000000 3.623444 0.000000 163.579773 -179.999985 179.999985 0.000000 2.517746 0.000000 169.064133 179.999985 -179.999985 -2.930115 8.305481 -0.410561 172.420090 149.392227 -179.999985 0.000000 3.561829 0.000000 0.000013 25.042694 -0.000003 0.000000 2.019272 0.000000 179.999985 162.470108 -179.999985 -1.054043 8.419662 -0.426876 172.004059 144.979752 179.999985 0.000000 3.886276 0.000000 179.999985 144.979843 -179.999985 0.000000 2.436172 0.000000 0.000018 23.323486 -0.000018 0.598167 7.872253 -0.507538 169.535858 145.980774 -179.999985 0.000000 3.386902 0.000000 179.999985 145.980881 180.000000 0.000000 2.350082 0.000000 0.000012 22.656738 -0.000009 2.255821 7.185272 -0.440468 158.692184 142.615601 -179.999985 0.000000 2.712601 0.000000 0.000003 56.076607 -0.000013 0.000000 1.713837 0.000000 0.000010 37.346970 -0.000018
